<?xml version="1.0" encoding="UTF-8" standalone="no"?>
<svg
   xmlns:dc="http://purl.org/dc/elements/1.1/"
   xmlns:cc="http://creativecommons.org/ns#"
   xmlns:rdf="http://www.w3.org/1999/02/22-rdf-syntax-ns#"
   xmlns:svg="http://www.w3.org/2000/svg"
   xmlns="http://www.w3.org/2000/svg"
   xmlns:sodipodi="http://sodipodi.sourceforge.net/DTD/sodipodi-0.dtd"
   xmlns:inkscape="http://www.inkscape.org/namespaces/inkscape"
   version="1.1"
   viewBox="0 0 900 900"
   width="900"
   height="900"
   id="svg4606"
   sodipodi:docname="icon.svg"
   inkscape:version="0.92.4 (5da689c313, 2019-01-14)">
  <metadata
     id="metadata4612">
    <rdf:RDF>
      <cc:Work
         rdf:about="">
        <dc:format>image/svg+xml</dc:format>
        <dc:type
           rdf:resource="http://purl.org/dc/dcmitype/StillImage" />
        <dc:title></dc:title>
      </cc:Work>
    </rdf:RDF>
  </metadata>
  <defs
     id="defs4610" />
  <sodipodi:namedview
     pagecolor="#ffffff"
     bordercolor="#666666"
     borderopacity="1"
     objecttolerance="10"
     gridtolerance="10"
     guidetolerance="10"
     inkscape:pageopacity="0"
     inkscape:pageshadow="2"
     inkscape:window-width="2560"
     inkscape:window-height="1387"
     id="namedview4608"
     showgrid="false"
     inkscape:zoom="0.83984375"
     inkscape:cx="450"
     inkscape:cy="448.49362"
     inkscape:window-x="-8"
     inkscape:window-y="-8"
     inkscape:window-maximized="1"
     inkscape:current-layer="svg4606"
     fit-margin-top="0"
     fit-margin-left="0"
     fit-margin-right="0"
     fit-margin-bottom="0" />
  <circle
     style="fill:#2c90cd;fill-opacity:1;stroke:none;stroke-width:2.37894583;stroke-linecap:round;stroke-linejoin:round;stroke-miterlimit:4;stroke-dasharray:19.0315652, 19.0315652;stroke-dashoffset:0;stroke-opacity:1;paint-order:fill markers stroke"
     id="innerCircle"
     cx="450"
     cy="450"
     inkscape:label="#path4654"
     r="450" />
  <path
     d="m 176,191 51,4 18,2 3,2 v 6 l -5,4 -16,10 h -2 v 2 l 5,2 78,48 23,14 6,4 1,-37 4,-4 h 328 l 3,3 v 188 l 6,2 32,16 23,11 26,13 19,9 2,3 v 159 l -4,4 -27,13 -23,11 -34,16 -41,20 -7,1 -37,-18 -23,-11 -33,-16 -28,-13 -9,-5 -1,-1 v -65 h -82 l -2,11 -7,19 -9,16 -9,12 -9,10 -11,10 -18,12 -17,8 -17,5 -20,3 h -19 l -21,-3 -21,-7 -16,-8 -12,-8 -14,-12 -10,-11 -11,-16 -9,-19 -5,-16 -3,-16 v -31 l 3,-16 7,-21 9,-17 10,-14 12,-13 11,-9 15,-10 17,-8 21,-6 15,-2 h 23 l 19,3 3,1 1,-133 -5,-2 -28,-17 -42,-26 -20,-12 -19,-12 -5,-3 -2,22 -2,5 -1,1 h -6 l -7,-9 -13,-22 -13,-21 -4,-7 v -5 z"
     id="path4570"
     inkscape:connector-curvature="0"
     style="fill:#233c51" />
  <path
     d="m 592,258 h 44 l 27,1 -1,175 -13,-6 -6,1 -36,18 -23,11 -16,8 -5,-1 -6,-5 -4,-1 -3,2 v 5 l 4,5 v 2 l -29,14 -8,4 h -2 l -1,86 -43,1 h -37 l -1,-29 -3,-18 -6,-18 -8,-17 -8,-12 -9,-11 -10,-10 -15,-11 -19,-10 -6,-3 V 310 l 5,2 27,16 46,28 20,12 23,14 15,9 5,4 -23,3 -13,2 -1,6 v 2 h 10 l 43,-5 3,-1 1,-6 -18,-42 -3,-6 h -6 l -1,1 1,8 11,26 -1,2 -22,-13 -10,-6 -16,-17 -15,-15 -4,-3 h -5 l -1,6 2,4 -5,-2 -26,-16 -20,-12 -21,-13 -1,-1 v -38 z"
     id="path4572"
     inkscape:connector-curvature="0"
     style="fill:#f7cf3f" />
  <path
     d="m 287,442 h 32 l 23,5 12,5 10,5 v 2 l 5,1 v 2 l 4,1 3,2 v 2 l 5,2 1,3 4,2 11,11 10,15 8,16 5,14 3,14 1,9 v 19 l -3,19 -5,16 -5,10 -2,5 h -2 l -1,5 h -2 v 3 h -2 l -1,4 -3,4 h -2 l -2,5 -11,11 -4,1 -1,3 -4,1 v 2 h -3 v 2 h -3 v 2 l -5,1 v 2 l -12,6 -18,6 -16,3 h -27 l -17,-3 -18,-6 -17,-9 -11,-8 -3,-3 -8,-7 -6,-7 v -2 l -3,-1 -1,-4 h -2 v -3 h -2 v -3 h -2 l -1,-5 h -2 l -5,-10 -5,-14 -4,-18 -1,-11 v -14 l 2,-16 5,-18 9,-19 8,-12 11,-13 11,-10 15,-10 14,-7 15,-5 z"
     id="path4582"
     inkscape:connector-curvature="0"
     style="fill:#91cce9" />
  <path
     d="m 524,504 5,1 35,17 25,12 27,13 22,10 4,3 v 143 l -6,-2 -53,-26 -28,-13 -31,-15 z"
     id="path4584"
     inkscape:connector-curvature="0"
     style="fill:#2a5385" />
  <path
     d="m 769,504 h 1 v 143 l -16,8 -23,11 -34,16 -39,19 -5,1 V 560 l 16,-8 35,-17 52,-25 z"
     id="path4586"
     inkscape:connector-curvature="0"
     style="fill:#2c90cd" />
  <path
     d="m 646,439 6,1 45,22 34,17 23,11 8,4 v 2 l -47,23 -29,14 -28,13 -11,5 -39,-19 -28,-13 -43,-21 -5,-2 3,-3 32,-16 23,-11 39,-19 z"
     id="path4588"
     inkscape:connector-curvature="0"
     style="fill:#2c90cd" />
  <path
     d="m 276,470 7,1 3,4 -1,7 -4,3 -15,5 -10,6 -9,8 -5,1 -5,-3 -2,-3 1,-6 5,-6 13,-9 11,-5 z"
     id="path4590"
     inkscape:connector-curvature="0"
     style="fill:#fcfcfc" />
  <path
     d="m 504,476 5,1 2,2 v 52 l -4,3 -5,-1 -2,-3 v -50 z"
     id="path4592"
     inkscape:connector-curvature="0"
     style="fill:#243d54" />
  <path
     d="m 389,411 h 51 l 3,3 -1,6 -4,2 h -48 l -4,-3 1,-7 z"
     id="path4594"
     inkscape:connector-curvature="0"
     style="fill:#233c51" />
  <path
     d="m 585,330 h 6 l 2,2 -1,7 -32,32 -3,2 h -6 l -2,-3 1,-5 7,-8 7,-7 8,-7 z"
     id="path4596"
     inkscape:connector-curvature="0"
     style="fill:#233c51" />
  <path
     d="m 456,458 5,1 1,7 -7,8 -27,27 -6,1 -3,-3 1,-6 34,-34 z"
     id="path4598"
     inkscape:connector-curvature="0"
     style="fill:#233b4f" />
  <path
     d="m 571,411 h 52 l 3,3 -1,6 -5,2 h -22 l -27,-1 -2,-2 v -6 z"
     id="path4600"
     inkscape:connector-curvature="0"
     style="fill:#233b4f" />
  <path
     d="m 503,304 7,1 1,2 v 50 l -2,3 h -6 l -2,-2 -1,-34 v -14 l 2,-5 z"
     id="path4602"
     inkscape:connector-curvature="0"
     style="fill:#233b4f" />
  <path
     d="m 186,203 21,1 19,2 -3,3 -12,8 -2,11 -2,9 -4,-5 -12,-20 z"
     id="path4604"
     inkscape:connector-curvature="0"
     style="fill:#2c90cd" />
</svg>
